<?xml version="1.0" encoding="UTF-8" standalone="no"?>
<!DOCTYPE svg PUBLIC "-//W3C//DTD SVG 1.1//EN"
 "http://www.w3.org/Graphics/SVG/1.1/DTD/svg11.dtd">
<!-- Generated by graphviz version 2.26.3 (20100126.1600)
 -->
<!-- Title: class_structure Pages: 1 -->
<svg width="4612pt" height="184pt"
 viewBox="0.00 0.00 4612.00 184.00" xmlns="http://www.w3.org/2000/svg" xmlns:xlink="http://www.w3.org/1999/xlink">
<g id="graph1" class="graph" transform="scale(1 1) rotate(0) translate(4 180)">
<title>class_structure</title>
<polygon fill="white" stroke="white" points="-4,5 -4,-180 4609,-180 4609,5 -4,5"/>
<!-- Loader -->
<g id="node1" class="node"><title>Loader</title>
<ellipse fill="none" stroke="#1e90ff" cx="70" cy="-150" rx="70.0036" ry="26.163"/>
<text text-anchor="middle" x="70" y="-142.9" font-family="Times Roman,serif" font-size="24.00" fill="#104e8b">Loader</text>
</g>
<!-- Uploader -->
<g id="node2" class="node"><title>Uploader</title>
<ellipse fill="none" stroke="#1e90ff" cx="246" cy="-150" rx="87.889" ry="26.163"/>
<text text-anchor="middle" x="246" y="-142.9" font-family="Times Roman,serif" font-size="24.00" fill="#104e8b">Uploader</text>
</g>
<!-- View -->
<g id="node3" class="node"><title>View</title>
<ellipse fill="none" stroke="#1e90ff" cx="141" cy="-26" rx="51.8276" ry="26.163"/>
<text text-anchor="middle" x="141" y="-18.9" font-family="Times Roman,serif" font-size="24.00" fill="#104e8b">View</text>
</g>
<!-- DataBase -->
<g id="node4" class="node"><title>DataBase</title>
<ellipse fill="none" stroke="#1e90ff" cx="653" cy="-150" rx="94.7523" ry="26.163"/>
<text text-anchor="middle" x="653" y="-142.9" font-family="Times Roman,serif" font-size="24.00" fill="#104e8b">DataBase</text>
</g>
<!-- Redirection -->
<g id="node5" class="node"><title>Redirection</title>
<ellipse fill="none" stroke="#1e90ff" cx="319" cy="-26" rx="108.187" ry="26.163"/>
<text text-anchor="middle" x="319" y="-18.9" font-family="Times Roman,serif" font-size="24.00" fill="#104e8b">Redirection</text>
</g>
<!-- Security -->
<g id="node6" class="node"><title>Security</title>
<ellipse fill="none" stroke="#1e90ff" cx="848" cy="-150" rx="82.0244" ry="26.163"/>
<text text-anchor="middle" x="848" y="-142.9" font-family="Times Roman,serif" font-size="24.00" fill="#104e8b">Security</text>
</g>
<!-- Language -->
<g id="node7" class="node"><title>Language</title>
<ellipse fill="none" stroke="#1e90ff" cx="1043" cy="-150" rx="94.9596" ry="26.163"/>
<text text-anchor="middle" x="1043" y="-142.9" font-family="Times Roman,serif" font-size="24.00" fill="#104e8b">Language</text>
</g>
<!-- Table -->
<g id="node8" class="node"><title>Table</title>
<ellipse fill="none" stroke="#1e90ff" cx="1212" cy="-150" rx="56.0679" ry="26.163"/>
<text text-anchor="middle" x="1212" y="-142.9" font-family="Times Roman,serif" font-size="24.00" fill="#104e8b">Table</text>
</g>
<!-- TextResponse -->
<g id="node9" class="node"><title>TextResponse</title>
<ellipse fill="none" stroke="#1e90ff" cx="573" cy="-26" rx="128.193" ry="26.163"/>
<text text-anchor="middle" x="573" y="-18.9" font-family="Times Roman,serif" font-size="24.00" fill="#104e8b">TextResponse</text>
</g>
<!-- Mail -->
<g id="node10" class="node"><title>Mail</title>
<ellipse fill="none" stroke="#1e90ff" cx="1332" cy="-150" rx="46.1672" ry="26.163"/>
<text text-anchor="middle" x="1332" y="-142.9" font-family="Times Roman,serif" font-size="24.00" fill="#104e8b">Mail</text>
</g>
<!-- DataBaseInflater -->
<g id="node11" class="node"><title>DataBaseInflater</title>
<ellipse fill="none" stroke="#1e90ff" cx="1552" cy="-150" rx="155.771" ry="26.163"/>
<text text-anchor="middle" x="1552" y="-142.9" font-family="Times Roman,serif" font-size="24.00" fill="#104e8b">DataBaseInflater</text>
</g>
<!-- Response -->
<g id="node12" class="node"><title>Response</title>
<ellipse fill="none" stroke="#1e90ff" cx="446" cy="-150" rx="94.0452" ry="26.163"/>
<text text-anchor="middle" x="446" y="-142.9" font-family="Times Roman,serif" font-size="24.00" fill="#104e8b">Response</text>
</g>
<!-- Response&#45;&gt;View -->
<g id="edge2" class="edge"><title>Response&#45;&gt;View</title>
<path fill="none" stroke="#36648b" d="M382.018,-124.728C332.713,-105.15 262.898,-77.2044 202,-52 195.086,-49.1384 187.75,-46.0538 180.653,-43.0438"/>
<polygon fill="#36648b" stroke="#36648b" points="381.011,-128.093 391.597,-128.528 383.593,-121.587 381.011,-128.093"/>
</g>
<!-- Response&#45;&gt;Redirection -->
<g id="edge4" class="edge"><title>Response&#45;&gt;Redirection</title>
<path fill="none" stroke="#36648b" d="M413.081,-117.859C391.91,-97.1874 364.78,-70.6982 345.098,-51.4815"/>
<polygon fill="#36648b" stroke="#36648b" points="410.699,-120.425 420.3,-124.907 415.59,-115.416 410.699,-120.425"/>
</g>
<!-- Response&#45;&gt;TextResponse -->
<g id="edge6" class="edge"><title>Response&#45;&gt;TextResponse</title>
<path fill="none" stroke="#36648b" d="M478.919,-117.859C500.09,-97.1874 527.22,-70.6982 546.902,-51.4815"/>
<polygon fill="#36648b" stroke="#36648b" points="476.41,-115.416 471.7,-124.907 481.301,-120.425 476.41,-115.416"/>
</g>
<!-- FileResponse -->
<g id="node19" class="node"><title>FileResponse</title>
<ellipse fill="none" stroke="#1e90ff" cx="841" cy="-26" rx="121.83" ry="26.163"/>
<text text-anchor="middle" x="841" y="-18.9" font-family="Times Roman,serif" font-size="24.00" fill="#104e8b">FileResponse</text>
</g>
<!-- Response&#45;&gt;FileResponse -->
<g id="edge8" class="edge"><title>Response&#45;&gt;FileResponse</title>
<path fill="none" stroke="#36648b" d="M518.1,-127.366C590.454,-104.653 701.099,-69.9184 772.243,-47.5843"/>
<polygon fill="#36648b" stroke="#36648b" points="516.646,-124.154 508.153,-130.489 518.743,-130.833 516.646,-124.154"/>
</g>
<!-- QueryIterator -->
<g id="node13" class="node"><title>QueryIterator</title>
<ellipse fill="none" stroke="#1e90ff" cx="1801" cy="-26" rx="126.78" ry="26.163"/>
<text text-anchor="middle" x="1801" y="-18.9" font-family="Times Roman,serif" font-size="24.00" fill="#104e8b">QueryIterator</text>
</g>
<!-- Router -->
<g id="node14" class="node"><title>Router</title>
<ellipse fill="none" stroke="#1e90ff" cx="1962" cy="-150" rx="68.0887" ry="26.163"/>
<text text-anchor="middle" x="1962" y="-142.9" font-family="Times Roman,serif" font-size="24.00" fill="#104e8b">Router</text>
</g>
<!-- Model -->
<g id="node15" class="node"><title>Model</title>
<ellipse fill="none" stroke="#1e90ff" cx="2111" cy="-150" rx="62.9325" ry="26.163"/>
<text text-anchor="middle" x="2111" y="-142.9" font-family="Times Roman,serif" font-size="24.00" fill="#104e8b">Model</text>
</g>
<!-- Lib -->
<g id="node16" class="node"><title>Lib</title>
<ellipse fill="none" stroke="#1e90ff" cx="2229" cy="-150" rx="36.7696" ry="26.163"/>
<text text-anchor="middle" x="2229" y="-142.9" font-family="Times Roman,serif" font-size="24.00" fill="#104e8b">Lib</text>
</g>
<!-- Image -->
<g id="node17" class="node"><title>Image</title>
<ellipse fill="none" stroke="#1e90ff" cx="2349" cy="-150" rx="65.0538" ry="26.163"/>
<text text-anchor="middle" x="2349" y="-142.9" font-family="Times Roman,serif" font-size="24.00" fill="#104e8b">Image</text>
</g>
<!-- Query -->
<g id="node18" class="node"><title>Query</title>
<ellipse fill="none" stroke="#1e90ff" cx="2879" cy="-26" rx="62.9325" ry="26.163"/>
<text text-anchor="middle" x="2879" y="-18.9" font-family="Times Roman,serif" font-size="24.00" fill="#104e8b">Query</text>
</g>
<!-- Request -->
<g id="node20" class="node"><title>Request</title>
<ellipse fill="none" stroke="#1e90ff" cx="3327" cy="-150" rx="80.8184" ry="26.163"/>
<text text-anchor="middle" x="3327" y="-142.9" font-family="Times Roman,serif" font-size="24.00" fill="#104e8b">Request</text>
</g>
<!-- Strings -->
<g id="node21" class="node"><title>Strings</title>
<ellipse fill="none" stroke="#1e90ff" cx="3497" cy="-150" rx="70.9184" ry="26.163"/>
<text text-anchor="middle" x="3497" y="-142.9" font-family="Times Roman,serif" font-size="24.00" fill="#104e8b">Strings</text>
</g>
<!-- Controller -->
<g id="node22" class="node"><title>Controller</title>
<ellipse fill="none" stroke="#1e90ff" cx="3681" cy="-150" rx="94.9596" ry="26.163"/>
<text text-anchor="middle" x="3681" y="-142.9" font-family="Times Roman,serif" font-size="24.00" fill="#104e8b">Controller</text>
</g>
<!-- CookieManager -->
<g id="node23" class="node"><title>CookieManager</title>
<ellipse fill="none" stroke="#1e90ff" cx="3939" cy="-150" rx="144.957" ry="26.163"/>
<text text-anchor="middle" x="3939" y="-142.9" font-family="Times Roman,serif" font-size="24.00" fill="#104e8b">CookieManager</text>
</g>
<!-- Config -->
<g id="node24" class="node"><title>Config</title>
<ellipse fill="none" stroke="#1e90ff" cx="4168" cy="-150" rx="65.7609" ry="26.163"/>
<text text-anchor="middle" x="4168" y="-142.9" font-family="Times Roman,serif" font-size="24.00" fill="#104e8b">Config</text>
</g>
<!-- FileInfo -->
<g id="node25" class="node"><title>FileInfo</title>
<ellipse fill="none" stroke="#1e90ff" cx="4324" cy="-150" rx="72.1249" ry="26.163"/>
<text text-anchor="middle" x="4324" y="-142.9" font-family="Times Roman,serif" font-size="24.00" fill="#104e8b">FileInfo</text>
</g>
<!-- Exception -->
<g id="node26" class="node"><title>Exception</title>
<ellipse fill="none" stroke="#1e90ff" cx="4509" cy="-150" rx="94.9596" ry="26.163"/>
<text text-anchor="middle" x="4509" y="-142.9" font-family="Times Roman,serif" font-size="24.00" fill="#104e8b">Exception</text>
</g>
<!-- Iterator -->
<g id="node32" class="node"><title>Iterator</title>
<ellipse fill="none" stroke="black" cx="1801" cy="-150" rx="75.1594" ry="26.163"/>
<text text-anchor="middle" x="1801" y="-142.9" font-family="Times Roman,serif" font-size="24.00">Iterator</text>
</g>
<!-- Iterator&#45;&gt;QueryIterator -->
<g id="edge11" class="edge"><title>Iterator&#45;&gt;QueryIterator</title>
<path fill="none" stroke="#ee9a49" d="M1801,-113.565C1801,-93.9052 1801,-70.0882 1801,-52.2593"/>
<polygon fill="#ee9a49" stroke="#ee9a49" points="1797.5,-113.703 1801,-123.703 1804.5,-113.703 1797.5,-113.703"/>
</g>
<!-- IteratorAggregate -->
<g id="node35" class="node"><title>IteratorAggregate</title>
<ellipse fill="none" stroke="black" cx="2597" cy="-150" rx="164.756" ry="26.163"/>
<text text-anchor="middle" x="2597" y="-142.9" font-family="Times Roman,serif" font-size="24.00">IteratorAggregate</text>
</g>
<!-- IteratorAggregate&#45;&gt;Query -->
<g id="edge14" class="edge"><title>IteratorAggregate&#45;&gt;Query</title>
<path fill="none" stroke="#ee9a49" d="M2662.1,-121.376C2715.48,-97.9021 2789.55,-65.3341 2835.85,-44.9753"/>
<polygon fill="#ee9a49" stroke="#ee9a49" points="2660.46,-118.272 2652.71,-125.502 2663.28,-124.68 2660.46,-118.272"/>
</g>
<!-- Countable -->
<g id="node36" class="node"><title>Countable</title>
<ellipse fill="none" stroke="black" cx="2879" cy="-150" rx="98.9949" ry="26.163"/>
<text text-anchor="middle" x="2879" y="-142.9" font-family="Times Roman,serif" font-size="24.00">Countable</text>
</g>
<!-- Countable&#45;&gt;Query -->
<g id="edge15" class="edge"><title>Countable&#45;&gt;Query</title>
<path fill="none" stroke="#ee9a49" d="M2879,-113.565C2879,-93.9052 2879,-70.0882 2879,-52.2593"/>
<polygon fill="#ee9a49" stroke="#ee9a49" points="2875.5,-113.703 2879,-123.703 2882.5,-113.703 2875.5,-113.703"/>
</g>
<!-- ArrayAccess -->
<g id="node37" class="node"><title>ArrayAccess</title>
<ellipse fill="none" stroke="black" cx="3112" cy="-150" rx="115.966" ry="26.163"/>
<text text-anchor="middle" x="3112" y="-142.9" font-family="Times Roman,serif" font-size="24.00">ArrayAccess</text>
</g>
<!-- ArrayAccess&#45;&gt;Query -->
<g id="edge16" class="edge"><title>ArrayAccess&#45;&gt;Query</title>
<path fill="none" stroke="#ee9a49" d="M3057.91,-121.213C3015.05,-98.4033 2956.2,-67.0837 2917.89,-46.6956"/>
<polygon fill="#ee9a49" stroke="#ee9a49" points="3056.33,-124.336 3066.8,-125.945 3059.62,-118.157 3056.33,-124.336"/>
</g>
</g>
</svg>
